<svg width="414" height="255" viewBox="0 0 414 255" fill="none" xmlns="http://www.w3.org/2000/svg">
<g clip-path="url(#clip0_391_415)">
<path d="M102.416 114.903C87.8363 114.418 1.86914 207.978 1.86914 207.978V247C1.86914 251.418 5.45086 255 9.86914 255H406.794C411.243 255 414.837 251.359 414.797 246.91C413.958 153.988 414.95 96.5171 414.003 1.5C414.003 1.5 325.126 95.5119 317.585 97.9357C310.044 100.36 239.159 95.5119 226.59 97.9357C214.022 100.36 197.935 137.104 185.366 138.171C172.798 139.238 139.618 138.171 133.585 138.171C127.552 138.171 116.995 115.387 102.416 114.903Z" fill="url(#paint0_linear_391_415)"/>
<path d="M0 211.326C0 211.326 86.4456 114.81 101.106 115.31C115.766 115.81 126.382 139.314 132.449 139.314C138.515 139.314 171.88 140.415 184.518 139.314C197.157 138.213 213.334 100.308 225.972 97.8073C238.61 95.3069 309.89 100.308 317.473 97.8073C325.056 95.3069 414.002 1.79187 414.002 1.79187" stroke="#FC8019" stroke-width="3" stroke-linecap="round"/>
</g>
<defs>
<linearGradient id="paint0_linear_391_415" x1="260.598" y1="-69.158" x2="288.003" y2="282.841" gradientUnits="userSpaceOnUse">
<stop stop-color="#FFD4B1" stop-opacity="0.61"/>
<stop stop-color="#FFD6B5" stop-opacity="0.629709"/>
<stop offset="1" stop-color="#FEFDFF"/>
</linearGradient>
<clipPath id="clip0_391_415">
<rect width="414" height="255" fill="white"/>
</clipPath>
</defs>
</svg>
