<svg width="100" height="101" viewBox="0 0 100 101" fill="none" xmlns="http://www.w3.org/2000/svg">
<rect width="100" height="100" transform="translate(0 0.666748)" fill="white"/>
<path d="M50 90.1699C40.9882 87.7123 33.5271 82.4078 27.6167 74.2564C21.7056 66.105 18.75 56.9918 18.75 46.9168V22.9429L50 11.2439L81.25 22.9429V46.9168C81.25 56.9918 78.2944 66.105 72.3833 74.2564C66.4729 82.4078 59.0118 87.7123 50 90.1699ZM50 83.5835C57.2222 81.2918 63.1944 76.7085 67.9167 69.8335C72.6389 62.9585 75 55.3196 75 46.9168V27.2293L50 17.8939L25 27.2293V46.9168C25 55.3196 27.3611 62.9585 32.0833 69.8335C36.8056 76.7085 42.7778 81.2918 50 83.5835ZM41.7469 66.6126H58.2531C59.3205 66.6126 60.2149 66.2515 60.9365 65.5293C61.658 64.8078 62.0187 63.9133 62.0187 62.846V50.5064C62.0187 49.4397 61.658 48.5453 60.9365 47.8231C60.2149 47.1015 59.3205 46.7408 58.2531 46.7408H57.8927V42.5741C57.8927 40.3894 57.1302 38.5345 55.6052 37.0095C54.0802 35.4838 52.225 34.721 50.0396 34.721C47.8549 34.721 46 35.4838 44.475 37.0095C42.95 38.5345 42.1875 40.3894 42.1875 42.5741V46.7408H41.7469C40.6795 46.7408 39.7851 47.1015 39.0635 47.8231C38.342 48.5453 37.9812 49.4397 37.9812 50.5064V62.846C37.9812 63.9133 38.342 64.8078 39.0635 65.5293C39.7851 66.2515 40.6795 66.6126 41.7469 66.6126ZM45.8729 46.7408V42.5741C45.8729 41.3936 46.2722 40.404 47.0708 39.6054C47.8694 38.8067 48.859 38.4074 50.0396 38.4074C51.2201 38.4074 52.2097 38.8067 53.0083 39.6054C53.8069 40.404 54.2062 41.3936 54.2062 42.5741V46.7408H45.8729Z" fill="#FC8019"/>
</svg>
