<svg width="100" height="101" viewBox="0 0 100 101" fill="none" xmlns="http://www.w3.org/2000/svg">
<rect width="100" height="100" transform="translate(0 0.666748)" fill="white"/>
<path d="M50.2083 82.9583C41.1965 82.9583 33.5271 79.8226 27.2 73.551C20.8722 67.2795 17.7083 59.6514 17.7083 50.6667V47.4135L10 55.1219L5.60938 50.7313L20.8333 35.5063L36.0573 50.7313L31.6667 55.1219L23.9583 47.4135V50.6667C23.9583 57.9049 26.5063 64.0549 31.6021 69.1167C36.6986 74.1778 42.9007 76.7083 50.2083 76.7083C51.934 76.7083 53.658 76.5201 55.3802 76.1438C57.1031 75.7667 58.7847 75.2017 60.425 74.449L65.1125 79.1365C62.7674 80.3969 60.3462 81.349 57.849 81.9927C55.351 82.6365 52.8042 82.9583 50.2083 82.9583ZM79.1667 65.8271L63.9427 50.6021L68.3333 46.2115L76.0417 53.9198V50.6667C76.0417 43.4285 73.4938 37.2785 68.3979 32.2167C63.3014 27.1556 57.0993 24.625 49.7917 24.625C48.066 24.625 46.342 24.8132 44.6198 25.1896C42.8969 25.5667 41.2153 26.1316 39.575 26.8844L34.8875 22.1969C37.2326 20.9365 39.6538 19.9844 42.151 19.3406C44.649 18.6969 47.1958 18.375 49.7917 18.375C58.8035 18.375 66.4729 21.5108 72.8 27.7823C79.1278 34.0538 82.2917 41.6819 82.2917 50.6667V53.9198L90 46.2115L94.3906 50.6021L79.1667 65.8271Z" fill="#FC8019"/>
</svg>
