<svg width="100" height="101" viewBox="0 0 100 101" fill="none" xmlns="http://www.w3.org/2000/svg">
<rect width="100" height="100" transform="translate(0 0.666748)" fill="white"/>
<path d="M30.6902 70.4583H36.9392V43.375H30.6902V70.4583ZM46.8757 70.4583H53.1257V30.875H46.8757V70.4583ZM63.0621 70.4583H69.3111V55.875H63.0621V70.4583ZM22.1163 86.0833C20.0114 86.0833 18.2298 85.3542 16.7715 83.8958C15.3132 82.4375 14.584 80.6559 14.584 78.551V22.7823C14.584 20.6774 15.3132 18.8958 16.7715 17.4375C18.2298 15.9792 20.0114 15.25 22.1163 15.25H77.885C79.9899 15.25 81.7715 15.9792 83.2298 17.4375C84.6882 18.8958 85.4173 20.6774 85.4173 22.7823V78.551C85.4173 80.6559 84.6882 82.4375 83.2298 83.8958C81.7715 85.3542 79.9899 86.0833 77.885 86.0833H22.1163ZM22.1163 79.8333H77.885C78.2059 79.8333 78.4996 79.6997 78.7663 79.4323C79.0336 79.1656 79.1673 78.8719 79.1673 78.551V22.7823C79.1673 22.4615 79.0336 22.1677 78.7663 21.901C78.4996 21.6337 78.2059 21.5 77.885 21.5H22.1163C21.7954 21.5 21.5017 21.6337 21.235 21.901C20.9677 22.1677 20.834 22.4615 20.834 22.7823V78.551C20.834 78.8719 20.9677 79.1656 21.235 79.4323C21.5017 79.6997 21.7954 79.8333 22.1163 79.8333Z" fill="#FC8019"/>
</svg>
