<svg width="100" height="101" viewBox="0 0 100 101" fill="none" xmlns="http://www.w3.org/2000/svg">
<rect width="100" height="100" transform="translate(0 0.666748)" fill="white"/>
<path d="M36.7154 91.7719L29.2799 79.2407L15.1612 76.1469L16.5393 61.6126L6.97266 50.6667L16.5393 39.7209L15.1612 25.1865L29.2799 22.0928L36.7154 9.56152L50.0008 15.2021L63.2862 9.56152L70.7216 22.0928L84.8404 25.1865L83.4622 39.7209L93.0289 50.6667L83.4622 61.6126L84.8404 76.1469L70.7216 79.2407L63.2862 91.7719L50.0008 86.1313L36.7154 91.7719ZM39.3758 83.7917L50.0008 79.2886L60.7539 83.7917L66.6674 73.7917L78.1258 71.1636L77.0841 59.4167L84.7924 50.6667L77.0841 41.7886L78.1258 30.0417L66.6674 27.5417L60.6258 17.5417L50.0008 22.0449L39.2477 17.5417L33.3341 27.5417L21.8758 30.0417L22.9174 41.7886L15.2091 50.6667L22.9174 59.4167L21.8758 71.2917L33.3341 73.7917L39.3758 83.7917ZM45.6258 64.0157L67.7247 41.9167L63.3341 37.398L45.6258 55.1063L36.6674 46.2761L32.2768 50.6667L45.6258 64.0157Z" fill="#FC8019"/>
</svg>
