<svg width="24" height="24" viewBox="0 0 24 24" fill="none" xmlns="http://www.w3.org/2000/svg">
<path d="M15.989 4.00062L14.486 5.50062H5.25L5.106 5.50662C4.6683 5.54276 4.26019 5.74216 3.96268 6.06523C3.66517 6.3883 3.50002 6.81143 3.5 7.25062V9.49062L6.11 7.85062C6.59067 7.54845 7.16782 7.43917 7.72569 7.5447C8.28356 7.65022 8.78091 7.96276 9.118 8.41962L9.213 8.55862C9.40643 8.86664 9.5223 9.21696 9.55068 9.57957C9.57907 9.94217 9.51913 10.3063 9.376 10.6406L9.297 10.8066L8.089 13.0926C8.0177 13.2277 7.98931 13.3812 8.00764 13.5328C8.02597 13.6844 8.09014 13.8268 8.19157 13.941C8.29301 14.0551 8.42687 14.1356 8.57526 14.1716C8.72366 14.2077 8.87952 14.1976 9.022 14.1426L9.12 14.0966L10.88 13.1036C11.0451 13.0113 11.239 12.9848 11.4228 13.0294C11.6066 13.074 11.7668 13.1864 11.8713 13.3441C11.9757 13.5018 12.0167 13.6931 11.9861 13.8798C11.9554 14.0664 11.8554 14.2346 11.706 14.3506L11.621 14.4076L9.856 15.4036C9.44449 15.6352 8.97054 15.7315 8.50128 15.6788C8.03201 15.6261 7.59123 15.4271 7.24136 15.1099C6.89148 14.7928 6.65026 14.3736 6.55184 13.9118C6.45342 13.4499 6.50281 12.9688 6.693 12.5366L6.763 12.3916L7.971 10.1056C8.04355 9.96806 8.07155 9.81135 8.05111 9.65718C8.03067 9.50301 7.96281 9.359 7.85692 9.2451C7.75104 9.13119 7.61236 9.05302 7.46009 9.0214C7.30782 8.98979 7.14948 9.00629 7.007 9.06862L6.909 9.12062L3.5 11.2626V16.7556C3.5 17.7216 4.284 18.5056 5.25 18.5056H18.75C19.2141 18.5056 19.6592 18.3212 19.9874 17.9931C20.3156 17.6649 20.5 17.2197 20.5 16.7556V9.44362L22 7.94662V16.7556C22 17.1824 21.9159 17.605 21.7526 17.9993C21.5893 18.3937 21.3499 18.7519 21.0481 19.0537C20.7463 19.3555 20.388 19.5949 19.9937 19.7582C19.5994 19.9216 19.1768 20.0056 18.75 20.0056H5.25C4.38805 20.0056 3.5614 19.6632 2.9519 19.0537C2.34241 18.4442 2 17.6176 2 16.7556V7.25062C1.99995 6.42048 2.31755 5.62179 2.88767 5.01839C3.45779 4.41499 4.23719 4.05262 5.066 4.00562L5.25 4.00062H15.989ZM21.175 3.54562L21.305 3.66562L21.426 3.79562C21.7974 4.22991 21.9912 4.78834 21.9688 5.35932C21.9463 5.93031 21.7093 6.4718 21.305 6.87562L17.024 11.1486C16.7609 11.4109 16.4369 11.604 16.081 11.7106L13.754 12.4106C13.5793 12.4633 13.3935 12.4671 13.2168 12.4217C13.0401 12.3763 12.8791 12.2834 12.7514 12.1531C12.6237 12.0228 12.5341 11.8601 12.4922 11.6825C12.4504 11.5049 12.4579 11.3192 12.514 11.1456L13.253 8.85062C13.363 8.51062 13.552 8.20062 13.805 7.94762L18.095 3.66462C18.4991 3.26068 19.0406 3.02397 19.6115 3.00172C20.1824 2.97948 20.7407 3.17434 21.175 3.54562ZM19.155 4.72562L14.865 9.00962C14.7808 9.09364 14.7177 9.19646 14.681 9.30962L14.234 10.6996L15.65 10.2746C15.7686 10.2388 15.8764 10.1742 15.964 10.0866L20.244 5.81362L20.319 5.72762C20.4375 5.57174 20.492 5.37653 20.4715 5.1818C20.451 4.98708 20.357 4.80751 20.2087 4.67971C20.0604 4.5519 19.8689 4.4855 19.6733 4.49403C19.4776 4.50256 19.2916 4.58539 19.155 4.72562Z" fill="#FC8019"/>
</svg>
