<svg width="20" height="17" viewBox="0 0 20 17" fill="none" xmlns="http://www.w3.org/2000/svg">
<path d="M13.989 1.00062L12.486 2.50062H3.25L3.106 2.50662C2.6683 2.54276 2.26019 2.74216 1.96268 3.06523C1.66517 3.3883 1.50002 3.81143 1.5 4.25062V6.49062L4.11 4.85062C4.59067 4.54845 5.16782 4.43917 5.72569 4.5447C6.28356 4.65022 6.78091 4.96276 7.118 5.41962L7.213 5.55862C7.40643 5.86664 7.5223 6.21696 7.55068 6.57957C7.57907 6.94217 7.51913 7.3063 7.376 7.6406L7.297 7.8066L6.089 10.0926C6.0177 10.2277 5.98931 10.3812 6.00764 10.5328C6.02597 10.6844 6.09014 10.8268 6.19157 10.941C6.29301 11.0551 6.42687 11.1356 6.57526 11.1716C6.72366 11.2077 6.87952 11.1976 7.022 11.1426L7.12 11.0966L8.88 10.1036C9.0451 10.0113 9.239 9.9848 9.4228 10.0294C9.6066 10.074 9.7668 10.1864 9.8713 10.3441C9.9757 10.5018 10.0167 10.6931 9.9861 10.8798C9.9554 11.0664 9.8554 11.2346 9.706 11.3506L9.621 11.4076L7.856 12.4036C7.44449 12.6352 6.97054 12.7315 6.50128 12.6788C6.03201 12.6261 5.59123 12.4271 5.24136 12.1099C4.89148 11.7928 4.65026 11.3736 4.55184 10.9118C4.45342 10.4499 4.50281 9.9688 4.693 9.5366L4.763 9.3916L5.971 7.1056C6.04355 6.96806 6.07155 6.81135 6.05111 6.65718C6.03067 6.50301 5.96281 6.359 5.85692 6.2451C5.75104 6.13119 5.61236 6.05302 5.46009 6.0214C5.30782 5.98979 5.14948 6.00629 5.007 6.06862L4.909 6.12062L1.5 8.2626V13.7556C1.5 14.7216 2.284 15.5056 3.25 15.5056H16.75C17.2141 15.5056 17.6592 15.3212 17.9874 14.9931C18.3156 14.6649 18.5 14.2197 18.5 13.7556V6.44362L20 4.94662V13.7556C20 14.1824 19.9159 14.605 19.7526 14.9993C19.5893 15.3937 19.3499 15.7519 19.0481 16.0537C18.7463 16.3555 18.388 16.5949 17.9937 16.7582C17.5994 16.9216 17.1768 17.0056 16.75 17.0056H3.25C2.38805 17.0056 1.5614 16.6632 0.9519 16.0537C0.34241 15.4442 5.90275e-09 14.6176 5.90275e-09 13.7556V4.25062C-4.99941e-05 3.42048 0.31755 2.62179 0.88767 2.01839C1.45779 1.41499 2.23719 1.05262 3.066 1.00562L3.25 1.00062H13.989ZM19.175 0.545622L19.305 0.665622L19.426 0.795622C19.7974 1.22991 19.9912 1.78834 19.9688 2.35932C19.9463 2.93031 19.7093 3.4718 19.305 3.87562L15.024 8.1486C14.7609 8.4109 14.4369 8.604 14.081 8.7106L11.754 9.4106C11.5793 9.4633 11.3935 9.4671 11.2168 9.4217C11.0401 9.3763 10.8791 9.2834 10.7514 9.1531C10.6237 9.0228 10.5341 8.8601 10.4922 8.6825C10.4504 8.5049 10.4579 8.3192 10.514 8.1456L11.253 5.85062C11.363 5.51062 11.552 5.20062 11.805 4.94762L16.095 0.664622C16.4991 0.260682 17.0406 0.0239719 17.6115 0.00172193C18.1824 -0.0205181 18.7407 0.174342 19.175 0.545622ZM17.155 1.72562L12.865 6.00962C12.7808 6.09364 12.7177 6.19646 12.681 6.30962L12.234 7.6996L13.65 7.2746C13.7686 7.2388 13.8764 7.1742 13.964 7.0866L18.244 2.81362L18.319 2.72762C18.4375 2.57174 18.492 2.37653 18.4715 2.1818C18.451 1.98708 18.357 1.80751 18.2087 1.67971C18.0604 1.5519 17.8689 1.4855 17.6733 1.49403C17.4776 1.50256 17.2916 1.58539 17.155 1.72562Z" fill="#FC8019"/>
</svg>
