<svg width="21" height="19" viewBox="0 0 21 19" fill="none" xmlns="http://www.w3.org/2000/svg">
<path d="M0 3.25C0 2.38805 0.34241 1.5614 0.9519 0.9519C1.5614 0.34241 2.38805 0 3.25 0H16.75C17.1768 0 17.5994 0.0840598 17.9937 0.24739C18.388 0.41072 18.7463 0.65011 19.0481 0.9519C19.3499 1.25369 19.5893 1.61197 19.7526 2.00628C19.9159 2.40059 20 2.8232 20 3.25V9H19.742C19.6776 8.0217 19.2316 7.1077 18.5 6.455V3.25C18.5 2.78587 18.3156 2.34075 17.9874 2.01256C17.6592 1.68437 17.2141 1.5 16.75 1.5H3.25C2.78587 1.5 2.34075 1.68437 2.01256 2.01256C1.68437 2.34075 1.5 2.78587 1.5 3.25V12.75C1.5 13.716 2.284 14.5 3.25 14.5H10V15C10 15.34 10.04 15.674 10.118 16H3.25C2.38805 16 1.5614 15.6576 0.9519 15.0481C0.34241 14.4386 0 13.612 0 12.75V3.25ZM19.5 13C19.8978 13 20.2794 13.158 20.5607 13.4393C20.842 13.7206 21 14.1022 21 14.5V15C21 16.971 19.14 19 16 19C12.86 19 11 16.971 11 15V14.5C11 14.1022 11.158 13.7206 11.4393 13.4393C11.7206 13.158 12.1022 13 12.5 13H19.5ZM16 6.5C16.7293 6.5 17.4288 6.7897 17.9445 7.3055C18.4603 7.8212 18.75 8.5207 18.75 9.25C18.75 9.9793 18.4603 10.6788 17.9445 11.1945C17.4288 11.7103 16.7293 12 16 12C15.2707 12 14.5712 11.7103 14.0555 11.1945C13.5397 10.6788 13.25 9.9793 13.25 9.25C13.25 8.5207 13.5397 7.8212 14.0555 7.3055C14.5712 6.7897 15.2707 6.5 16 6.5Z" fill="#FC8019"/>
</svg>
