<svg width="23" height="18" viewBox="0 0 23 18" fill="none" xmlns="http://www.w3.org/2000/svg">
<path d="M11.5055 13.5061V6.7699M11.5055 6.7699L14.5826 9.76378M11.5055 6.7699L8.42842 9.76378M6.12062 16.5C5.02255 16.5012 3.96003 16.1214 3.12386 15.4289C2.2877 14.7364 1.73267 13.7765 1.55847 12.7216C1.38426 11.6668 1.60228 10.5861 2.17338 9.67355C2.74447 8.76104 3.63123 8.07651 4.6744 7.74291C4.40639 6.40682 4.68338 5.02168 5.44673 3.88083C6.21007 2.73998 7.39982 1.93299 8.76404 1.63077C10.1283 1.32854 11.5598 1.5548 12.7556 2.26164C13.9513 2.96848 14.8173 4.10039 15.1703 5.41767C15.7159 5.245 16.3004 5.22422 16.8576 5.35769C17.4147 5.49116 17.9224 5.77355 18.3234 6.17296C18.7243 6.57238 19.0024 7.07292 19.1264 7.61803C19.2503 8.16315 19.2151 8.73112 19.0248 9.25781C19.8645 9.56988 20.5654 10.1581 21.006 10.9204C21.4466 11.6827 21.599 12.5709 21.4369 13.4311C21.2747 14.2913 20.8082 15.0692 20.1183 15.6297C19.4283 16.1903 18.5585 16.4982 17.6596 16.5H6.12062Z" stroke="#FF6D2C" stroke-width="1.5" stroke-linecap="round" stroke-linejoin="round"/>
</svg>
